:FULLY-SPECIFIED
:DEGREES
235
root -0.567874014377594 -0.567874014377594 -0.567874014377594 -0.5678755879732001 -0.5678755879732001 -0.5678755879732001
lhipjoint -9.671654586443837e-08 -1.5341245206083327e-07 1.0672170578144923e-06
lfemur 6.294907671645674 -2.053482500142582 1.3473790378505448
ltibia -0.9418010175530124 6.177209691244813e-08 8.263939557761838e-07
lfoot -1.378034847836266 1.3039276772052313e-06 1.5748231632732057
ltoes 10.124787265229054 3.1018029262174824e-06 2.1242329317658458e-07
rhipjoint 1.1005675908711953e-07 6.870210827458292e-07 -1.494104084495789e-06
rfemur 4.609380482139785 6.337992931816938 -1.2680410545555576
rtibia -0.7995558714242971 -2.868069000675344e-08 -8.613608721664438e-07
rfoot 2.9569965721379705 1.180790645268437e-06 -3.6316931170789966
rtoes -1.2590086629867445 -9.14833120804332e-08 -1.167388754729373e-07
lowerback -4.306146123087429 1.160640171838515 -1.2749779654313518
upperback -2.887830874951248 1.4882434719107125 0.32172931070555993
thorax -0.08227641205122732 0.6321066869280001 0.09058198878302894
lowerneck -11.457395592112624 -2.029057957114028 -1.9248847656666397
upperneck 23.5797988923852 -3.0151462414105206 2.3060364286666197
head 9.370881229926802 -1.331763944747426 0.7745436119620046
lclavicle -1.4085775951116125e-07 5.4855408257763046e-08 -1.0938974842598547e-06
lhumerus -120.4577352967218 22.507809239888157 -45.45813960591227
lradius 45.47443302217734 -5.348111347989637e-07 1.231770305924681e-06
lwrist 1.115045516492317e-05 82.81535383729843 -2.6886320797666533e-06
lhand -4.562975323145072 2.6246558075710764e-07 -26.656099019086014
lfingers 7.125022823272814 9.845282338726802e-08 3.18924141240953e-07
lthumb 21.213298854421275 -1.2803152392500461e-07 2.20318914769186
rclavicle 1.398304276268298e-07 4.3880174074018323e-07 -1.3740421654916584e-06
rhumerus -118.55597840535847 -44.65976220892407 15.465600752754456
rradius 22.306632848074603 -1.3034310017861738e-06 -2.5724114565957324e-06
rwrist 5.177940985867609e-06 -101.08769447096999 1.1574821156741752e-05
rhand -6.972260092956778 2.0321462048512455e-07 -36.68780446630613
rfingers 7.125022396385991 5.1024341088409163e-08 -3.1892353057445414e-07
rthumb 18.897492480477187 1.5447771905696147e-06 -65.78980959509936
236
root -0.567874014377594 -0.567874014377594 -0.567874014377594 -0.5678755879732001 -0.5678755879732001 -0.5678755879732001
lhipjoint -9.671654586443837e-08 -1.5341245206083327e-07 1.0672170578144923e-06
lfemur 6.19917488646513 -2.2184317820418014 1.6536722544340081
ltibia -1.4098056862039918 6.744345846493426e-08 1.666663272183533e-06
lfoot -1.0625472361346135 -5.4637552984301524e-08 1.5136788829364285
ltoes 10.600221365428009 1.4134355488876425e-06 -2.979218954573139e-07
rhipjoint 1.1005675908711953e-07 6.870210827458292e-07 -1.494104084495789e-06
rfemur 4.739318854683754 6.046999125530892 -1.3446470689042453
rtibia -1.5185015300989864 -9.40669657037171e-08 -8.673886593987535e-07
rfoot 3.39313083106973 1.2733967949291767e-06 -3.6187157576559725
rtoes -1.0021389086809052 1.634795946274765e-06 -1.240462380202559e-07
lowerback -4.562441714616165 1.1287159743795814 -1.200911180628322
upperback -2.8689661059070843 1.4509917268991688 0.3063067435596712
thorax 0.06923078408703602 0.6143755692034999 0.04044839694008204
lowerneck -11.457395592112624 -2.029057957114028 -1.9248847656666397
upperneck 23.5797988923852 -3.0151462414105206 2.3060364286666197
head 9.370881229926802 -1.331763944747426 0.7745436119620046
lclavicle -1.4085775951116125e-07 5.4855408257763046e-08 -1.0938974842598547e-06
lhumerus -120.85215140053336 21.549094859681198 -44.96645136303598
lradius 46.16722252478632 -1.753842734002322e-06 1.8154805606183375e-06
lwrist 1.3330245516976073e-05 83.8810272723605 -3.214280163750508e-06
lhand -4.562975323145072 2.6246558075710764e-07 -26.656099019086014
lfingers 7.125022823272814 9.845282338726802e-08 3.18924141240953e-07
lthumb 21.213298854421275 -1.2803152392500461e-07 2.20318914769186
rclavicle 1.398304276268298e-07 4.3880174074018323e-07 -1.3740421654916584e-06
rhumerus -118.57517123692621 -42.96148348312459 15.763709481721541
rradius 22.510174192888275 -3.0206732356249614e-06 -2.963421215803622e-06
rwrist 5.236731885266028e-06 -100.93076404459977 1.1706214603298376e-05
rhand -6.972260092956778 2.0321462048512455e-07 -36.68780446630613
rfingers 7.125022396385991 5.1024341088409163e-08 -3.1892353057445414e-07
rthumb 18.897492480477187 1.5447771905696147e-06 -65.78980959509936
237
root -0.567874014377594 -0.567874014377594 -0.567874014377594 -0.5678755879732001 -0.5678755879732001 -0.5678755879732001
lhipjoint -9.671654586443837e-08 -1.5341245206083327e-07 1.0672170578144923e-06
lfemur 6.183630229687827 -2.3942685989214327 1.8756952373680889
ltibia -1.8474837813315859 1.2364296913108379e-07 7.991714101464754e-07
lfoot -0.8566699132639437 -1.1226818603492238e-07 1.541245953313423
ltoes 10.859497907642632 -3.1924367248647153e-07 -2.680571485537452e-07
rhipjoint 1.1005675908711953e-07 6.870210827458292e-07 -1.494104084495789e-06
rfemur 4.961984302286639 5.835292716451292 -1.378075828971286
rtibia -2.308412907610961 -1.1661567350679614e-07 -1.728256418367383e-06
rfoot 3.784528418154964 2.957420399675011e-06 -3.6737948300097782
rtoes -0.7651586118772897 1.6522877756898167e-06 -7.753646530224714e-08
lowerback -4.6980628045495845 1.0886094237383839 -1.1446989372025285
upperback -2.847436495869558 1.4088360127852617 0.3163334879416763
thorax 0.16175252658402875 0.5939260895501874 0.03009383015834271
lowerneck -11.457395592112624 -2.029057957114028 -1.9248847656666397
upperneck 23.5797988923852 -3.0151462414105206 2.3060364286666197
head 9.370881229926802 -1.331763944747426 0.7745436119620046
lclavicle -1.4085775951116125e-07 5.4855408257763046e-08 -1.0938974842598547e-06
lhumerus -121.41999966774988 20.65321821983835 -44.255934104436236
lradius 46.58641855490668 -5.376482913525789e-07 1.3821135481623395e-06
lwrist 1.4608815064261431e-05 84.37007564712259 -3.522545426587441e-06
lhand -4.562975323145072 2.6246558075710764e-07 -26.656099019086014
lfingers 7.125022823272814 9.845282338726802e-08 3.18924141240953e-07
lthumb 21.213298854421275 -1.2803152392500461e-07 2.20318914769186
rclavicle 1.398304276268298e-07 4.3880174074018323e-07 -1.3740421654916584e-06
rhumerus -118.61238210752443 -41.51346630360896 16.075449560724678
rradius 22.584773519003154 -5.481012733687399e-07 -2.0450068922057116e-06
rwrist 5.3194857451899665e-06 -100.71748455757695 1.1891212355123263e-05
rhand -6.972260092956778 2.0321462048512455e-07 -36.68780446630613
rfingers 7.125022396385991 5.1024341088409163e-08 -3.1892353057445414e-07
rthumb 18.897492480477187 1.5447771905696147e-06 -65.78980959509936
238
root -0.567874014377594 -0.567874014377594 -0.567874014377594 -0.5678755879732001 -0.5678755879732001 -0.5678755879732001
lhipjoint -9.671654586443837e-08 -1.5341245206083327e-07 1.0672170578144923e-06
lfemur 6.223422058018675 -2.5526602588872054 2.0354659552159693
ltibia -2.221109429639858 1.1927736521974442e-07 7.882669929210462e-07
lfoot -0.7231415292591927 1.052630270712177e-06 1.6021985614666168
ltoes 11.011250196848328 1.4160969352673413e-06 -4.3838506263247403e-07
rhipjoint 1.1005675908711953e-07 6.870210827458292e-07 -1.494104084495789e-06
rfemur 5.195356925187165 5.6868560572008136 -1.3949313484607024
rtibia -2.998931799207733 -5.951028997849089e-08 8.268564847601808e-07
rfoot 4.100956568249669 1.530470902945767e-06 -3.734119060759331
rtoes -0.5631900248417185 8.131726698541518e-07 -5.564366420779824e-08
lowerback -4.780858357668479 1.0515624776802346 -1.1064771986071371
upperback -2.8219598902654104 1.3714611109252461 0.33626403330062643
thorax 0.2307374238609443 0.5755390068611016 0.03995661664973451
lowerneck -11.457395592112624 -2.029057957114028 -1.9248847656666397
upperneck 23.5797988923852 -3.0151462414105206 2.3060364286666197
head 9.370881229926802 -1.331763944747426 0.7745436119620046
lclavicle -1.4085775951116125e-07 5.4855408257763046e-08 -1.0938974842598547e-06
lhumerus -122.08026039443666 19.815741404946408 -43.532740014736945
lradius 46.78618109756204 -5.385113666709409e-07 1.408987759443334e-06
lwrist 1.5068073725601789e-05 84.52710852633035 -3.633265776603301e-06
lhand -4.562975323145072 2.6246558075710764e-07 -26.656099019086014
lfingers 7.125022823272814 9.845282338726802e-08 3.18924141240953e-07
lthumb 21.213298854421275 -1.2803152392500461e-07 2.20318914769186
rclavicle 1.398304276268298e-07 4.3880174074018323e-07 -1.3740421654916584e-06
rhumerus -118.67390845156791 -40.276918610986094 16.405593584446414
rradius 22.531279477423617 -5.453813647829021e-07 -2.0319654984564633e-06
rwrist 5.417895058589192e-06 -100.4748079363664 1.2111233051989678e-05
rhand -6.972260092956778 2.0321462048512455e-07 -36.68780446630613
rfingers 7.125022396385991 5.1024341088409163e-08 -3.1892353057445414e-07
rthumb 18.897492480477187 1.5447771905696147e-06 -65.78980959509936
